name C:\Users\u0101727\Documents\MyRepositories\upper-imu-dc\Results\main_tracking\Case_60\kinematics.mot
datacolumns 10
datarows 47
range 6.25000000 6.71000000
endheader 
time	clav_prot	clav_elev	scapula_abduction	scapula_elevation	scapula_upward_rot	scapula_winging	plane_elv	shoulder_elv	axial_rot	
          6.25000000	        -46.52290483	          5.48387381	         -6.91477665	         -4.92224834	         77.36567333	        -13.01991319	         35.61865620	         80.76216623	         -8.82946081	
          6.26000000	        -46.52327749	          5.42602281	         -6.81384908	         -4.95210954	         77.48199961	        -12.98488390	         35.83472834	         80.89764249	         -8.97290586	
          6.27000000	        -46.52287352	          5.36870370	         -6.71206472	         -4.98150889	         77.59808084	        -12.94941992	         36.05327254	         81.03127172	         -9.11450102	
          6.28000000	        -46.52179818	          5.31205348	         -6.60958220	         -5.01035589	         77.71397202	        -12.91364083	         36.27431233	         81.16316802	         -9.25392629	
          6.29000000	        -46.52016787	          5.25619782	         -6.50658449	         -5.03856941	         77.82971599	        -12.87767093	         36.49780250	         81.29344013	         -9.39090503	
          6.30000000	        -46.51810804	          5.20125036	         -6.40327436	         -5.06607790	         77.94534490	        -12.84163731	         36.72362766	         81.42219325	         -9.52520973	
          6.31000000	        -46.51575120	          5.14731320	         -6.29987000	         -5.09281883	         78.06088189	        -12.80566848	         36.95160204	         81.54953111	         -9.65666567	
          6.32000000	        -46.51323471	          5.09447772	         -6.19660108	         -5.11873796	         78.17634205	        -12.76989304	         37.18147005	         81.67555735	         -9.78515327	
          6.33000000	        -46.51069867	          5.04282458	         -6.09370528	         -5.14378917	         78.29173261	        -12.73443823	         37.41290722	         81.80037599	         -9.91061002	
          6.34000000	        -46.50828377	          4.99242243	         -5.99142472	         -5.16793529	         78.40705250	        -12.69942794	         37.64552167	         81.92409117	        -10.03303281	
          6.35000000	        -46.50612893	          4.94332506	         -5.89000202	         -5.19114996	         78.52229195	        -12.66498014	         37.87885635	         82.04680662	        -10.15248107	
          6.36000000	        -46.50436890	          4.89556730	         -5.78967567	         -5.21342033	         78.63743203	        -12.63120361	         38.11239254	         82.16862476	        -10.26908023	
          6.37000000	        -46.50313168	          4.84916026	         -5.69067500	         -5.23475023	         78.75244433	        -12.59819442	         38.34555535	         82.28964561	        -10.38302463	
          6.38000000	        -46.50253608	          4.80408658	         -5.59321517	         -5.25516323	         78.86729102	        -12.56603232	         38.57772185	         82.40996582	        -10.49457810	
          6.39000000	        -46.50268975	          4.76029731	         -5.49749266	         -5.27470470	         78.98192554	        -12.53477811	         38.80823269	         82.52967807	        -10.60406996	
          6.40000000	        -46.50368782	          4.71771212	         -5.40368196	         -5.29344138	         79.09629436	        -12.50447254	         39.03640729	         82.64887147	        -10.71188464	
          6.41000000	        -46.50561236	          4.67622442	         -5.31193373	         -5.31145765	         79.21033966	        -12.47513762	         39.26156206	         82.76763288	        -10.81844390	
          6.42000000	        -46.50853244	          4.63571119	         -5.22237499	         -5.32884858	         79.32400243	        -12.44678016	         39.48302990	         82.88604865	        -10.92418298	
          6.43000000	        -46.51250483	          4.59604537	         -5.13511143	         -5.34571122	         79.43722475	        -12.41939692	         39.70017848	         83.00420570	        -11.02952380	
          6.44000000	        -46.51757516	          4.55710761	         -5.05023132	         -5.36213657	         79.54995053	        -12.39298001	         39.91242515	         83.12219120	        -11.13484981	
          6.45000000	        -46.52377900	          4.51879481	         -4.96780976	         -5.37820390	         79.66212484	        -12.36752120	         40.11924734	         83.24009069	        -11.24048695	
          6.46000000	        -46.53114244	          4.48102436	         -4.88791144	         -5.39397794	         79.77369259	        -12.34301420	         40.32018855	         83.35798542	        -11.34669333	
          6.47000000	        -46.53968152	          4.44373483	         -4.81059046	         -5.40950845	         79.88459766	        -12.31945482	         40.51486106	         83.47594949	        -11.45365868	
          6.48000000	        -46.54940041	          4.40688466	         -4.73588684	         -5.42483093	         79.99478303	        -12.29683930	         40.70294689	         83.59404736	        -11.56151180	
          6.49000000	        -46.56028828	          4.37045041	         -4.66381964	         -5.43996746	         80.10419257	        -12.27516136	         40.88419830	         83.71233219	        -11.67033387	
          6.50000000	        -46.57231585	          4.33442549	         -4.59437833	         -5.45492687	         80.21277452	        -12.25440901	         41.05843937	         83.83084556	        -11.78017347	
          6.51000000	        -46.58543144	          4.29881979	         -4.52751340	         -5.46970437	         80.32048532	        -12.23456137	         41.22556844	         83.94961702	        -11.89106172	
          6.52000000	        -46.59955818	          4.26366005	         -4.46312890	         -5.48428066	         80.42729356	        -12.21558641	         41.38556026	         84.06866463	        -12.00302465	
          6.53000000	        -46.61459226	          4.22898969	         -4.40107714	         -5.49862147	         80.53318320	        -12.19743933	         41.53846609	         84.18799564	        -12.11609359	
          6.54000000	        -46.63040286	          4.19486737	         -4.34115706	         -5.51267845	         80.63815495	        -12.18006166	         41.68441185	         84.30760685	        -12.23031277	
          6.55000000	        -46.64683312	          4.16136303	         -4.28311534	         -5.52639183	         80.74222600	        -12.16338030	         41.82359361	         84.42748464	        -12.34574570	
          6.56000000	        -46.66370247	          4.12855148	         -4.22665018	         -5.53969528	         80.84542764	        -12.14730655	         41.95627120	         84.54760415	        -12.46248012	
          6.57000000	        -46.68080935	          4.09650383	         -4.17141704	         -5.55252226	         80.94780125	        -12.13173494	         42.08276048	         84.66792788	        -12.58063218	
          6.58000000	        -46.69793432	          4.06527847	         -4.11703562	         -5.56481306	         81.04939290	        -12.11654214	         42.20342477	         84.78840358	        -12.70034911	
          6.59000000	        -46.71484331	          4.03491298	         -4.06309771	         -5.57652113	         81.15024733	        -12.10158641	         42.31866607	         84.90896181	        -12.82181005	
          6.60000000	        -46.73129081	          4.00541849	         -4.00917583	         -5.58761793	         81.25040186	        -12.08670820	         42.42891608	         85.02951376	        -12.94522429	
          6.61000000	        -46.74702360	          3.97677679	         -3.95483246	         -5.59809566	         81.34988102	        -12.07173197	         42.53462709	         85.14994981	        -13.07082673	
          6.62000000	        -46.76178499	          3.94894006	         -3.89962995	         -5.60796830	         81.44869261	        -12.05646946	         42.63626255	         85.27013958	        -13.19887089	
          6.63000000	        -46.77532002	          3.92183230	         -3.84314102	         -5.61727132	         81.54682530	        -12.04072399	         42.73428748	         85.38993370	        -13.32961973	
          6.64000000	        -46.78738149	          3.89535170	         -3.78495963	         -5.62606054	         81.64424798	        -12.02429563	         42.82915883	         85.50916724	        -13.46333519	
          6.65000000	        -46.79773665	          3.86937353	         -3.72471191	         -5.63441069	         81.74091056	        -12.00698677	         42.92131605	         85.62766422	        -13.60026719	
          6.66000000	        -46.80617361	          3.84375306	         -3.66206624	         -5.64241372	         81.83674534	        -11.98860750	         43.01117156	         85.74524325	        -13.74064288	
          6.67000000	        -46.81250761	          3.81832903	         -3.59674238	         -5.65017674	         81.93166963	        -11.96898099	         43.09910163	         85.86172293	        -13.88465733	
          6.68000000	        -46.81658746	          3.79292755	         -3.52852095	         -5.65781944	         82.02558833	        -11.94794918	         43.18543901	         85.97692685	        -14.03246423	
          6.69000000	        -46.81829926	          3.76736554	         -3.45724831	         -5.66547186	         82.11839669	        -11.92537635	         43.27046520	         86.09068883	        -14.18417028	
          6.70000000	        -46.81757010	          3.74145503	         -3.38284158	         -5.67327137	         82.20998303	        -11.90115314	         43.35440556	         86.20285674	        -14.33982932	
          6.71000000	        -46.81436969	          3.71500840	         -3.30529074	         -5.68135900	         82.30023137	        -11.87519948	         43.43742586	         86.31329549	        -14.49943863	
